<svg aria-hidden="true" focusable="false" data-prefix="fad" data-icon="arrow-square-down" class="svg-inline--fa fa-arrow-square-down fa-w-14" role="img" xmlns="http://www.w3.org/2000/svg" viewBox="0 0 448 512"><g class="fa-group"><path class="fa-secondary" fill="currentColor" d="M400 32H48A48 48 0 0 0 0 80v352a48 48 0 0 0 48 48h352a48 48 0 0 0 48-48V80a48 48 0 0 0-48-48zm-26.4 239.6L240.9 404.3a23.9 23.9 0 0 1-33.9 0L74.4 271.6a23.9 23.9 0 0 1 0-33.9l10.9-11a24 24 0 0 1 34.3.4l72.4 75.5V120a23.94 23.94 0 0 1 24-24h16a23.94 23.94 0 0 1 24 24v182.6l72.4-75.5a24 24 0 0 1 34.3-.4l10.9 11a23.9 23.9 0 0 1 0 33.9z" opacity="0.4"></path><path class="fa-primary" fill="currentColor" d="M328.4 227.1a24 24 0 0 1 34.3-.4l10.9 11a23.9 23.9 0 0 1 0 33.9L240.9 404.3a23.9 23.9 0 0 1-33.9 0L74.4 271.6a23.9 23.9 0 0 1 0-33.9l10.9-11a24 24 0 0 1 34.3.4l72.4 75.5V120a23.94 23.94 0 0 1 24-24h16a23.94 23.94 0 0 1 24 24v182.6l72.4-75.5z"></path></g></svg>